Simulation
nRows=42
nColumns=15
endheader
time  TH_x TH_y TH_z SC_y  SC_z  SC_x  AC_y  AC_z  AC_x  GH_y  GH_z  GH_yy  EL_x  PS_y
0.0  0.000000  0.000000  0.000000  -22.604297433094032  5.194119892789322  -6.864701601203439  57.58153552799695  8.581502931092656  8.825134008673045  -147.42305468569995  4.169237876642291  -175.89115958083812  20.20300497432285  120.000000
0.04016479400749064  0.000000  0.000000  0.000000  -22.615525522902477  5.204665089760783  -6.850746365415102  57.55079272869197  8.627738615498897  8.806543985790773  -146.16568663521252  4.044130577050529  -177.25105772037983  20.11699935504014  120.000000
0.08032958801498127  0.000000  0.000000  0.000000  -22.65112397525677  5.238722433112671  -6.810471876418181  57.451489113910164  8.763969928518684  8.746527685233849  -141.77239645463425  3.687205263657568  178.04286257541844  19.86738558062696  120.000000
0.12049438202247191  0.000000  0.000000  0.000000  -22.720360750486325  5.298853626998246  -6.752998184678065  57.27037740089558  8.976528969460917  8.643406698144961  -132.26078136486976  3.1760686916222207  167.99973595760386  19.478712845845262  120.000000
0.16065917602996255  0.000000  0.000000  0.000000  -22.83652319827648  5.382641092849324  -6.69397351455858  57.00085002791785  9.243354048587898  8.500326065685963  -114.04219025353048  2.7050975777334556  149.02824730437257  18.981815209794068  120.000000
0.20082397003745317  0.000000  0.000000  0.000000  -23.016021866744698  5.486637451416244  -6.647858288647618  56.64347426909591  9.544381105715617  8.323191158147356  -86.14117901910052  2.6535124233888783  120.15756685720676  18.406367037900036  120.000000
0.24098876404494382  0.000000  0.000000  0.000000  -23.274812575070886  5.60576197233794  -6.623347548358311  56.204167831925375  9.86371917310491  8.122879811650957  -59.76148043267349  3.3373418391894427  92.60435944771228  17.778802218303014  120.000000
0.28115355805243447  0.000000  0.000000  0.000000  -23.625514773555803  5.736098257328055  -6.618110558697579  55.697902189007884  10.189899953211066  7.907468153293859  -43.16144776788538  4.637137312342801  74.64604574169272  17.121758823955805  120.000000
0.3213183520599251  0.000000  0.000000  0.000000  -24.07619028317788  5.880425282353159  -6.620684414047787  55.143662430853034  10.516760543053417  7.683562121006728  -33.65735167986443  6.326648189446628  63.62167046653947  16.454848541813977  120.000000
0.3614831460674157  0.000000  0.000000  0.000000  -24.62587020587191  6.041710183988383  -6.618022324450492  54.55917195211651  10.84515134046471  7.457605726601737  -27.95976112647977  8.282429402778964  56.267959688092965  15.792250428262452  120.000000
0.40164794007490634  0.000000  0.000000  0.000000  -25.268932240160485  6.222385460865761  -6.59529925192657  53.961707705191586  11.17692458744496  7.233420016257866  -24.3304366249429  10.442772705053633  50.874296206602715  15.144724436122925  120.000000
0.441812734082397  0.000000  0.000000  0.000000  -25.99562980800117  6.425571554288757  -6.534312567110351  53.36711172552082  11.51005740511586  7.0124409278270665  -21.914682973654315  12.770113357424908  46.614965072574044  14.520555619906785  120.000000
0.48197752808988764  0.000000  0.000000  0.000000  -26.793426253835914  6.652326482269645  -6.41719567092478  52.789424370394165  11.840395503450418  6.795041305285447  -20.26616058201631  15.235399237067261  43.07261934033711  13.925615993075933  120.000000
0.5221423220973783  0.000000  0.000000  0.000000  -27.648008473032288  6.90198167926354  -6.229444968285845  52.24124708923612  12.162311378001549  6.582360275989441  -19.12953420402637  17.81153615036605  40.02034893602534  13.363930720668403  120.000000
0.5623071161048689  0.000000  0.000000  0.000000  -28.544146401577244  7.172403845784237  -5.961161165403287  51.73419239552175  12.469519911456453  6.376346682595246  -18.3433313118549  20.471443859792714  37.32359547370015  12.83780197586399  120.000000
0.6024719101123596  0.000000  0.000000  0.000000  -29.467008083544624  7.460495326449262  -5.608682987030449  51.27854245502815  12.756852927828293  6.180527368547836  -17.795747326044175  23.18835900946065  34.89478924930845  12.34773871750892  120.000000
0.6426367041198502  0.000000  0.000000  0.000000  -30.402903738075718  7.7630083194259205  -5.173266449500605  50.88307510659146  13.0201955186207  5.999238671063282  -17.404112273869462  25.9366074009204  32.671856396126856  11.892279068720493  120.000000
0.6828014981273408  0.000000  0.000000  0.000000  -31.340111489114328  8.076785547240327  -4.657596409622102  50.55474004007916  13.255117193309859  5.835764995748434  -17.105016968956644  28.692405421823345  30.607295309518403  11.467876421869619  120.000000
0.7229662921348314  0.000000  0.000000  0.000000  -32.26892313386861  8.398973221324027  -4.065374839710665  50.29795107408812  13.458031686151884  5.692565000609967  -16.849767395265957  31.434154291345283  28.663179800616998  11.068820581102672  120.000000
0.7631310861423221  0.000000  0.000000  0.000000  -33.18128426430669  8.727143529004598  -3.402220087421441  50.11411427446758  13.628127169881202  5.572193807288335  -16.601605617339466  34.142784721205636  26.80833388923568  10.68776233574084  120.000000
0.8032958801498127  0.000000  0.000000  0.000000  -34.070184682644346  9.05947062163883  -2.674954890992474  50.00154602280843  13.767058280497178  5.476824361677192  -16.334582187469618  36.80187967178072  25.01792971927898  10.316504964536412  120.000000
0.8434606741573034  0.000000  0.000000  0.000000  -34.92960871782017  9.394410500980655  -1.8907479175343607  49.95509363787458  13.877731603254878  5.40735240043456  -16.033356664126202  39.39745429586599  23.274203255286206  9.947255701738126  120.000000
0.883625468164794  0.000000  0.000000  0.000000  -35.75417297013768  9.730221714872417  -1.0576550540291048  49.96583966112199  13.963573781615889  5.363143852225578  -15.692950140956047  41.91722332681638  21.567550772041127  9.574006153760923  120.000000
0.9237902621722847  0.000000  0.000000  0.000000  -36.538653108635  10.064711637318045  -0.18515804605721128  50.021970174638966  14.027662322684415  5.342175155432231  -15.31668464215992  44.34965068632447  19.89606221529826  9.194099927157305  120.000000
0.9639550561797753  0.000000  0.000000  0.000000  -37.27725597824657  10.395324530222046  0.7156831679899439  50.11014891560235  14.072330331179828  5.341141038589392  -14.913343340551254  46.683576773145795  18.264550227577242  8.809620696940229  120.000000
1.004119850187266  0.000000  0.000000  0.000000  -37.963981942754884  10.719319905879125  1.6321978824900778  50.21693993713358  14.099161892409242  5.355745388934024  -14.49527944970887  48.90854730104872  16.683683467189383  8.42736481393226  120.000000
1.0442846441947566  0.000000  0.000000  0.000000  -38.59385459010748  11.033938868455547  2.5501797509919197  50.3293625692602  14.108443820917962  5.380861880327312  -14.076966230047368  51.01476275092656  15.1688679289568  8.057615232900677  120.000000
1.0844494382022472  0.000000  0.000000  0.000000  -39.16404768366689  11.336187723934362  3.4541666744371895  50.43574901580702  14.099024170100574  5.4104296497830715  -13.673427127226269  52.99287772328781  13.738378025140028  7.712606379730516  120.000000
1.1246142322097379  0.000000  0.000000  0.000000  -39.67442506958061  11.62305218619551  4.328311620619386  50.52693404622185  14.068512863426117  5.437559592087844  -13.298509346544149  54.83416382551894  12.411256122579898  7.404767367128765  120.000000
1.1647790262172284  0.000000  0.000000  0.000000  -40.127261171320576  11.891733893733734  5.157352060047851  50.59734398690422  14.013758804872266  5.454649915234827  -12.96333776246866  56.53079351017786  11.20514247626181  7.145231416530916  120.000000
1.2049438202247191  0.000000  0.000000  0.000000  -40.52647630629424  12.139453557291102  5.927471031559913  50.64514927700975  13.931234611783841  5.45439247648856  -12.67524152460156  58.076091549460976  10.13457665346983  6.942735300400017  120.000000
1.2451086142322096  0.000000  0.000000  0.000000  -40.87646829464282  12.363594769969032  6.626929695751885  50.67153066306573  13.81767033454784  5.430532696430572  -12.43759145392091  59.464754838085014  9.209852844612952  6.802732359325732  120.000000
1.2852734082397004  0.000000  0.000000  0.000000  -41.181439346392004  12.561997564575105  7.247101004753744  50.679636556294035  13.671289257077838  5.378470757853894  -12.250268196667198  60.693557038299716  8.436412241056136  6.726602349764713  120.000000
1.325438202247191  0.000000  0.000000  0.000000  -41.44514192299334  12.733318641545464  7.783594211957717  50.673329958027274  13.492914821744606  5.295998984538827  -12.110432359428415  61.762135567607764  7.814383490648586  6.711020187215496  120.000000
1.3656029962546816  0.000000  0.000000  0.000000  -41.67084255493367  12.877075490285756  8.23693540512309  50.65616099682364  13.28671434612195  5.1836403372346505  -12.013366653737389  62.67336366129435  7.338493260652139  6.7475268307555325  120.000000
1.4057677902621724  0.000000  0.000000  0.000000  -41.861411507113935  12.993541339999915  8.61261287995545  50.63079277765763  13.060330554322912  5.04457013734513  -11.953277893909657  63.433128520848946  6.998254692733471  6.8226548550256565  120.000000
1.4459325842696629  0.000000  0.000000  0.000000  -42.019388297367996  13.08362427649445  8.92031308601236  50.59882137469419  12.824373802538716  4.884030910234588  -11.923839051284414  64.0495148091199  6.778731221051419  6.918987228681833  120.000000
1.4860973782771536  0.000000  0.000000  0.000000  -42.14696807018521  13.148706558273156  9.172475509801297  50.560976046403496  12.591273596021017  4.7084762148850885  -11.918532845261778  64.5314893792557  6.661758525025488  7.0172455031821235  120.000000
1.5262621722846441  0.000000  0.000000  0.000000  -42.24582364148829  13.190433042452955  9.382367419998884  50.51751919266591  12.373727129341228  4.52459446692278  -11.93072414815075  64.88716761947643  6.6274805288546865  7.099047619812906  120.000000
1.5664269662921348  0.000000  0.000000  0.000000  -42.31675581888569  13.210409301352657  9.56202425627308  50.46871740065576  12.182984000424138  4.338485102157067  -11.953625306991869  65.12196904116637  6.65589531582878  7.149848420892301  120.000000
1.6065917602996254  0.000000  0.000000  0.000000  -42.35925056876545  13.209877505315752  9.720433263413986  50.41525552019704  12.027371939248187  4.15503500481569  -11.98026765789713  65.236806827322  6.7282118977009535  7.161505314833344  120.000000
1.646756554307116  0.000000  0.000000  0.000000  -42.37100034390182  13.189407261970404  9.8622093806204  50.35850811921414  11.911301316048615  3.9775988801999826  -12.00357732937423  65.22667341913687  6.8277843560611915  7.1338084597424185  120.000000
